
        <svg xmlns="http://www.w3.org/2000/svg" xmlns:xlink="http://www.w3.org/1999/xlink" version="1.1" width="3147.783251231527" height="716.9634440028645" viewBox="0 0 3147.783251231527 716.9634440028645">
			
			<g transform="scale(7.389162561576355) translate(10, 10)">
				<defs id="SvgjsDefs1001"/><g id="SvgjsG1007" featureKey="symbolFeature-0" transform="matrix(1.5003586405682958,0,0,1.5003586405682958,4.843968287432965,-1.4148279416980085)" fill="#000">    <title xmlns="http://www.w3.org/2000/svg">Shape 20</title>    <g xmlns="http://www.w3.org/2000/svg" id="Page-1" stroke="none" stroke-width="1" fill-rule="evenodd">        <g id="Artboard" transform="translate(-80.000000, -1033.000000)" fill-rule="nonzero">            <g id="Shape-20" transform="translate(80.104000, 1033.943000)">                <path d="M24.459,45.231 L24.459,49.424 L49.657,49.424 L49.657,0 L0,0 L0,49.424 L16.678,49.424 L16.678,36.483 L24.464,36.483 C28.947,36.483 32.615,34.262 34.884,30.469 C38.59,24.27 36.454,17.131 32.033,11.887 C34.335,16.789 34.429,23.032 31.235,27.412 C28.721,30.857 24.539,31.889 20.455,31.889 L12.03,31.889 L12.03,45.231 L4.193,45.231 L4.193,4.194 L45.468,4.194 L45.468,45.231 L24.459,45.231 L24.459,45.231 Z M26.11,17.807 C25.774,14.26 23.355,12.207 19.643,12.207 L12.03,12.207 L12.03,24.211 L16.677,24.211 L16.677,17.391 L23.668,17.391 C24.554,17.391 25.334,17.495 26.11,17.807 L26.11,17.807 Z" id="Shape"/>            </g>        </g>    </g></g><g id="SvgjsG1008" featureKey="textGroupContainer" transform="matrix(1,0,0,1,405,2)" fill="#000"><rect xmlns="http://www.w3.org/2000/svg" y="0" height="1" width="1" opacity="0"/><rect xmlns="http://www.w3.org/2000/svg" y="0" x="-310" width="3" height="70"/></g><g id="SvgjsG1009" featureKey="nameFeature-0" transform="matrix(0.8409089551098008,0,0,0.8409089551098008,109.92866411824258,-7.575117580630749)" fill="#000"><path d="M9.5117 34.8242 l8.8477 0 l0 5.1758 l-14.707 0 l0 -28.223 l5.8594 0 l0 23.047 z M41.7186875 40 l-2.0508 -5.8203 l-11.855 0 l-2.0508 5.8203 l-5.9961 0 l10.391 -28.223 l7.168 0 l10.391 28.223 l-5.9961 0 z M29.5316875 29.277 l8.418 0 l-4.1992 -11.973 z M56.54298125 40 l-7.3828 -28.223 l6.0938 0 l5.5078 21.367 l6.3086 -21.367 l4.9414 0 l6.2695 21.367 l5.5664 -21.367 l6.0742 0 l-7.3828 28.223 l-7.5391 0 l-5.4688 -17.441 l-5.4492 17.441 l-7.5391 0 z M117.323875 40.39063 c-8.3008 0 -14.434 -5.6641 -14.434 -14.512 c0 -8.8672 6.1328 -14.492 14.434 -14.492 c8.2813 0 14.414 5.625 14.414 14.492 c0 8.8477 -6.1328 14.512 -14.414 14.512 z M117.323875 35.0195 c4.8633 0 8.5938 -3.418 8.5938 -9.1406 c0 -5.7031 -3.7305 -9.1016 -8.5938 -9.1016 s-8.5938 3.3984 -8.5938 9.1016 c0 5.7227 3.7305 9.1406 8.5938 9.1406 z M153.7695625 16.934 l-10.742 0 l0 6.4063 l9.2773 0 l0 5.0977 l-9.2773 0 l0 11.563 l-5.8984 0 l0 -28.223 l16.641 0 l0 5.1563 z M175.4101875 16.934 l-10.742 0 l0 6.4063 l9.2773 0 l0 5.0977 l-9.2773 0 l0 11.563 l-5.8984 0 l0 -28.223 l16.641 0 l0 5.1563 z M180.4101125 40 l0 -28.223 l5.8594 0 l0 28.223 l-5.8594 0 z M206.05434375 40.39063 c-8.3008 0 -14.434 -5.6445 -14.434 -14.512 s6.1328 -14.492 14.434 -14.492 c6.2891 0 11.328 3.2227 13.34 8.5742 l-5.4688 1.9922 c-1.25 -3.2813 -4.2383 -5.1758 -7.8711 -5.1758 c-4.8633 0 -8.5938 3.3984 -8.5938 9.1016 s3.7305 9.1211 8.5938 9.1211 c3.6328 0 6.6211 -1.9141 7.8711 -5.1953 l5.4688 1.9922 c-2.0117 5.3516 -7.0508 8.5938 -13.34 8.5938 z M240.566875 16.934 l-10.469 0 l0 6.4063 l9.2773 0 l0 5.0977 l-9.2773 0 l0 6.3867 l10.469 0 l0 5.1758 l-16.367 0 l0 -28.223 l16.367 0 l0 5.1563 z M255.97621875 40.39063 c-6.0547 0 -10.781 -2.9102 -11.641 -8.2031 l6.0547 -1.3867 c0.39063 3.1641 2.7148 4.8047 5.8203 4.8047 c2.3828 0 4.2773 -1.0547 4.2578 -3.4375 c-0.019531 -2.6563 -3.1445 -3.4961 -6.582 -4.5508 c-4.1406 -1.2891 -8.5742 -2.8125 -8.5742 -8.0078 c0 -5.2539 4.2969 -8.2227 9.9609 -8.2227 c4.9609 0 9.9609 2.0117 11.094 7.4219 l-5.6641 1.4063 c-0.52734 -2.8125 -2.4219 -4.043 -5.0781 -4.043 c-2.3633 0 -4.375 0.97656 -4.375 3.3008 c0 2.168 2.7734 2.8906 5.9766 3.8477 c4.2578 1.2891 9.2969 2.9297 9.2969 8.5547 c0 5.9961 -5.0195 8.5156 -10.547 8.5156 z M294.823875 40.39063 c-8.3008 0 -14.434 -5.6641 -14.434 -14.512 c0 -8.8672 6.1328 -14.492 14.434 -14.492 c8.2813 0 14.414 5.625 14.414 14.492 c0 8.8477 -6.1328 14.512 -14.414 14.512 z M294.823875 35.0195 c4.8633 0 8.5938 -3.418 8.5938 -9.1406 c0 -5.7031 -3.7305 -9.1016 -8.5938 -9.1016 s-8.5938 3.3984 -8.5938 9.1016 c0 5.7227 3.7305 9.1406 8.5938 9.1406 z M331.2695625 16.934 l-10.742 0 l0 6.4063 l9.2773 0 l0 5.0977 l-9.2773 0 l0 11.563 l-5.8984 0 l0 -28.223 l16.641 0 l0 5.1563 z"/></g><g id="SvgjsG1010" featureKey="sloganFeature-0" transform="matrix(1.4540924331238472,0,0,1.4540924331238472,110.34468129977445,42.7214879944123)" fill="#000"><path d="M7.6953 5.888999999999999 c2.7637 0 4.4824 2.0508 4.4824 4.5605 c0 2.5684 -1.7188 4.4922 -4.4824 4.4922 l-2.9395 0 l0 5.0586 l-2.9297 0 l0 -14.111 l5.8691 0 z M7.207 12.4902 c1.4648 0 2.1484 -0.81055 2.1484 -2.0801 c0 -1.2207 -0.68359 -2.0703 -2.1484 -2.0703 l-2.4512 0 l0 4.1504 l2.4512 0 z M22.0898 20 l-3.6719 -6.2109 l-0.84961 0 l0 6.2109 l-2.9297 0 l0 -14.111 l5.1172 0 c3.1934 0 4.541 1.8848 4.541 4.2188 c0 1.8945 -1.0742 3.125 -2.9883 3.5352 l4.248 6.3574 l-3.4668 0 z M17.5684 8.32 l0 3.3691 l1.7285 0 c1.5625 0 2.1973 -0.66406 2.1973 -1.6797 c0 -1.0059 -0.63477 -1.6895 -2.1973 -1.6895 l-1.7285 0 z M27.70510625 20 l0 -14.111 l2.9297 0 l0 14.111 l-2.9297 0 z M42.461171875 5.888999999999999 l0 2.5781 l-3.3496 0 l0 11.533 l-2.9004 0 l0 -11.533 l-3.3691 0 l0 -2.5781 l9.6191 0 z M50.5468625 5.888999999999999 c2.7637 0 4.4824 2.0508 4.4824 4.5605 c0 2.5684 -1.7188 4.4922 -4.4824 4.4922 l-2.9395 0 l0 5.0586 l-2.9297 0 l0 -14.111 l5.8691 0 z M50.0585625 12.4902 c1.4648 0 2.1484 -0.81055 2.1484 -2.0801 c0 -1.2207 -0.68359 -2.0703 -2.1484 -2.0703 l-2.4512 0 l0 4.1504 l2.4512 0 z M66.9340625 20 l-1.0254 -2.9102 l-5.9277 0 l-1.0254 2.9102 l-2.998 0 l5.1953 -14.111 l3.584 0 l5.1953 14.111 l-2.998 0 z M60.8398625 14.6387 l4.209 0 l-2.0996 -5.9863 z M74.980509375 17.4121 l4.4238 0 l0 2.5879 l-7.3535 0 l0 -14.111 l2.9297 0 l0 11.523 z M91.523465625 20.19531 c-3.0273 0 -5.3906 -1.4551 -5.8203 -4.1016 l3.0273 -0.69336 c0.19531 1.582 1.3574 2.4023 2.9102 2.4023 c1.1914 0 2.1387 -0.52734 2.1289 -1.7188 c-0.0097656 -1.3281 -1.5723 -1.748 -3.291 -2.2754 c-2.0703 -0.64453 -4.2871 -1.4063 -4.2871 -4.0039 c0 -2.627 2.1484 -4.1113 4.9805 -4.1113 c2.4805 0 4.9805 1.0059 5.5469 3.7109 l-2.832 0.70313 c-0.26367 -1.4063 -1.2109 -2.0215 -2.5391 -2.0215 c-1.1816 0 -2.1875 0.48828 -2.1875 1.6504 c0 1.084 1.3867 1.4453 2.9883 1.9238 c2.1289 0.64453 4.6484 1.4648 4.6484 4.2773 c0 2.998 -2.5098 4.2578 -5.2734 4.2578 z M99.50198125 20 l0 -14.111 l2.9297 0 l0 14.111 l-2.9297 0 z M115.713046875 5.888999999999999 l2.9199 0 l0 14.111 l-3.3887 0 l-6.25 -10.088 l0 10.088 l-2.9199 0 l0 -14.111 l3.3496 0 l6.2891 10.029 l0 -10.029 z M128.388684375 20.19531 c-4.0723 0 -7.0703 -2.8125 -7.0703 -7.2168 c0 -4.4629 3.0664 -7.2852 7.2168 -7.2852 c2.7246 0 4.9805 1.2012 6.2109 3.3203 l-2.5684 1.3672 c-0.74219 -1.4453 -2.0703 -2.1387 -3.6426 -2.1387 c-2.4414 0 -4.2773 1.6797 -4.2773 4.668 c0 2.8809 1.7188 4.7363 4.3848 4.7363 c1.8066 0 3.4668 -0.89844 3.8672 -2.959 l-3.8574 0 l0 -2.3535 l6.6309 0 l0 7.666 l-2.3047 0 l0 -1.9531 c-0.9082 1.3379 -2.4316 2.1484 -4.5898 2.1484 z M147.217140625 5.888999999999999 l2.9297 0 l0 14.111 l-2.9297 0 l0 -5.8008 l-5.9668 0 l0 5.8008 l-2.9297 0 l0 -14.111 l2.9297 0 l0 5.7617 l5.9668 0 l0 -5.7617 z M155.40035625 23.5938 l-2.0117 0 l1.2207 -6.3867 l2.8906 0 z M171.42576875 5.888999999999999 c2.7637 0 4.4824 2.0508 4.4824 4.5605 c0 2.5684 -1.7188 4.4922 -4.4824 4.4922 l-2.9395 0 l0 5.0586 l-2.9297 0 l0 -14.111 l5.8691 0 z M170.93746875 12.4902 c1.4648 0 2.1484 -0.81055 2.1484 -2.0801 c0 -1.2207 -0.68359 -2.0703 -2.1484 -2.0703 l-2.4512 0 l0 4.1504 l2.4512 0 z M184.61916875 20.19531 c-4.1504 0 -7.2168 -2.8223 -7.2168 -7.2559 s3.0664 -7.2461 7.2168 -7.2461 c3.1445 0 5.6641 1.6113 6.6699 4.2871 l-2.7344 0.99609 c-0.625 -1.6406 -2.1191 -2.5879 -3.9355 -2.5879 c-2.4316 0 -4.2969 1.6992 -4.2969 4.5508 s1.8652 4.5605 4.2969 4.5605 c1.8164 0 3.3105 -0.95703 3.9355 -2.5977 l2.7344 0.99609 c-1.0059 2.6758 -3.5254 4.2969 -6.6699 4.2969 z"/></g>
			</g>
		</svg>
	