<svg xmlns="http://www.w3.org/2000/svg" xmlns:xlink="http://www.w3.org/1999/xlink" width="50" zoomAndPan="magnify" viewBox="0 0 37.5 37.499999" height="50" preserveAspectRatio="xMidYMid meet" version="1.2"><defs><clipPath id="f99f277b2c"><path d="M 16 0.09375 L 37.007812 0.09375 L 37.007812 21 L 16 21 Z M 16 0.09375 "/></clipPath></defs><g id="4ea94b84fb"><path style=" stroke:none;fill-rule:nonzero;fill:#ffffff;fill-opacity:1;" d="M 30.039062 24.394531 C 29.136719 23.492188 28.277344 23.339844 27.710938 23.347656 C 26.597656 23.386719 25.910156 24.144531 25.875 24.1875 C 24.902344 25.191406 23.011719 26.53125 22.109375 26.222656 C 21.484375 25.917969 18.605469 23.144531 16.273438 20.726562 C 13.878906 18.417969 11.105469 15.542969 10.816406 14.960938 C 10.5 14.007812 11.835938 12.121094 12.796875 11.1875 C 12.882812 11.113281 13.636719 10.425781 13.675781 9.3125 C 13.695312 8.746094 13.53125 7.886719 12.628906 6.988281 L 8.222656 2.578125 C 6.585938 0.941406 4.769531 1.554688 3.980469 2.152344 C 1.453125 4.335938 0.152344 7.015625 0.113281 10.117188 C 0.0117188 18.253906 8.742188 26.488281 9.539062 27.226562 L 9.613281 27.308594 C 9.644531 27.347656 9.683594 27.382812 9.722656 27.417969 L 9.78125 27.46875 C 10.394531 28.136719 18.609375 36.914062 26.769531 36.914062 C 26.816406 36.914062 26.863281 36.914062 26.910156 36.914062 C 30.011719 36.875 32.6875 35.574219 34.917969 32.988281 C 35.46875 32.257812 36.082031 30.441406 34.449219 28.804688 L 30.039062 24.394531 "/><g clip-rule="nonzero" clip-path="url(#f99f277b2c)"><path style=" stroke:none;fill-rule:nonzero;fill:#ffffff;fill-opacity:1;" d="M 17.691406 0.09375 C 16.902344 0.09375 16.261719 0.734375 16.261719 1.523438 C 16.261719 2.3125 16.902344 2.953125 17.691406 2.953125 C 26.761719 2.953125 34.144531 10.332031 34.144531 19.402344 C 34.144531 20.191406 34.78125 20.835938 35.574219 20.835938 C 36.363281 20.835938 37.003906 20.191406 37.003906 19.402344 C 37.003906 8.753906 28.339844 0.09375 17.691406 0.09375 "/></g><path style=" stroke:none;fill-rule:nonzero;fill:#ffffff;fill-opacity:1;" d="M 17.691406 9.082031 C 23.382812 9.082031 28.007812 13.710938 28.007812 19.402344 C 28.007812 20.191406 28.648438 20.835938 29.441406 20.835938 C 30.230469 20.835938 30.871094 20.191406 30.871094 19.402344 C 30.871094 12.132812 24.960938 6.222656 17.691406 6.222656 C 16.902344 6.222656 16.261719 6.863281 16.261719 7.652344 C 16.261719 8.441406 16.902344 9.082031 17.691406 9.082031 "/></g></svg>