<svg xmlns="http://www.w3.org/2000/svg" xmlns:xlink="http://www.w3.org/1999/xlink" width="50" zoomAndPan="magnify" viewBox="0 0 37.5 37.499999" height="50" preserveAspectRatio="xMidYMid meet" version="1.2"><defs><clipPath id="e528c6417e"><path d="M 0 0.671875 L 37 0.671875 L 37 36.195312 L 0 36.195312 Z M 0 0.671875 "/></clipPath></defs><g id="52e41a7628"><g clip-rule="nonzero" clip-path="url(#e528c6417e)"><path style=" stroke:none;fill-rule:nonzero;fill:#ffffff;fill-opacity:1;" d="M 18.101562 36.023438 C 12.449219 36.023438 6.800781 36.019531 1.148438 36.03125 C 0.390625 36.03125 0.261719 35.5625 0.210938 34.964844 C 0.0429688 32.953125 0.433594 31.027344 1.226562 29.195312 C 3.09375 24.871094 5.921875 21.429688 10.304688 19.425781 C 11.117188 19.054688 11.789062 19.121094 12.605469 19.566406 C 15.875 21.359375 19.335938 21.941406 22.957031 20.769531 C 23.636719 20.550781 24.269531 20.148438 24.867188 19.746094 C 25.359375 19.417969 25.765625 19.375 26.289062 19.660156 C 30.96875 22.199219 34.320312 25.882812 35.964844 31 C 36.304688 32.0625 36.46875 33.1875 36.640625 34.292969 C 36.84375 35.589844 36.332031 36.148438 34.964844 36.171875 C 33.71875 36.191406 32.472656 36.164062 31.226562 36.164062 C 26.851562 36.164062 22.476562 36.164062 18.101562 36.164062 C 18.101562 36.117188 18.101562 36.074219 18.101562 36.027344 Z M 18.964844 0.664062 C 13.703125 0.675781 9.519531 4.703125 9.523438 9.746094 C 9.523438 14.695312 13.761719 18.804688 18.824219 18.78125 C 23.839844 18.757812 27.894531 14.71875 27.886719 9.757812 C 27.882812 4.808594 23.800781 0.652344 18.964844 0.664062 Z M 18.964844 0.664062 "/></g></g></svg>